0
SECTION
2
HEADER
9
$INSUNITS
70
4
0
ENDSEC
0
SECTION
2
TABLES
0
TABLE
2
LAYER
0
LAYER
2
M-DUCT-SUPP
70
0
62
140
6
CONTINUOUS
0
LAYER
2
P-PIPE-DOMW
70
0
62
30
6
CONTINUOUS
0
LAYER
2
G-ANNO-TEXT
70
0
62
7
6
CONTINUOUS
0
ENDTAB
0
ENDSEC
0
SECTION
2
BLOCKS
0
BLOCK
2
XB-DUCT-ELBOW
70
0
10
0.0
20
0.0
30
0.0
0
LINE
8
M-DUCT-SUPP
10
0.0
20
0.0
30
0.0
11
300.0
21
0.0
31
0.0
0
LINE
8
M-DUCT-SUPP
10
300.0
20
0.0
30
0.0
11
300.0
21
300.0
31
0.0
0
ENDBLK
0
BLOCK
2
FCU
70
0
10
0.0
20
0.0
30
0.0
0
LINE
8
M-DUCT-SUPP
10
0.0
20
0.0
30
0.0
11
800.0
21
0.0
31
0.0
0
LINE
8
M-DUCT-SUPP
10
800.0
20
0.0
30
0.0
11
800.0
21
400.0
31
0.0
0
ATTDEF
8
G-ANNO-TEXT
10
0.0
20
100.0
30
0.0
40
2.5
1

3
TAG
2
TAG
70
0
0
ATTDEF
8
G-ANNO-TEXT
10
0.0
20
200.0
30
0.0
40
2.5
1

3
MODEL
2
MODEL
70
0
0
ATTDEF
8
G-ANNO-TEXT
10
0.0
20
300.0
30
0.0
40
2.5
1

3
SIZE
2
SIZE
70
0
0
ENDBLK
0
BLOCK
2
XB-TB-A1
70
0
10
0.0
20
0.0
30
0.0
0
LINE
8
G-ANNO-TEXT
10
0.0
20
0.0
30
0.0
11
841.0
21
0.0
31
0.0
0
ATTDEF
8
G-ANNO-TEXT
10
10.0
20
10.0
30
0.0
40
2.5
1

3
DU_AN
2
DU_AN
70
0
0
ATTDEF
8
G-ANNO-TEXT
10
10.0
20
20.0
30
0.0
40
2.5
1

3
HANG_MUC
2
HANG_MUC
70
0
0
ATTDEF
8
G-ANNO-TEXT
10
10.0
20
30.0
30
0.0
40
2.5
1

3
TI_LE
2
TI_LE
70
0
0
ATTDEF
8
G-ANNO-TEXT
10
10.0
20
40.0
30
0.0
40
2.5
1

3
NGAY
2
NGAY
70
0
0
ATTDEF
8
G-ANNO-TEXT
10
10.0
20
50.0
30
0.0
40
2.5
1

3
NGUOI_VE
2
NGUOI_VE
70
0
0
ATTDEF
8
G-ANNO-TEXT
10
10.0
20
60.0
30
0.0
40
2.5
1

3
SO_BAN_VE
2
SO_BAN_VE
70
0
0
ENDBLK
0
BLOCK
2
XB-SUP-DUCT
70
0
10
0.0
20
0.0
30
0.0
0
LINE
8
M-DUCT-SUPP
10
-200.0
20
0.0
30
0.0
11
200.0
21
0.0
31
0.0
0
ENDBLK
0
BLOCK
2
XB-SLEEVE-W
70
0
10
0.0
20
0.0
30
0.0
0
LINE
8
P-PIPE-DOMW
10
0.0
20
0.0
30
0.0
11
0.0
21
150.0
31
0.0
0
ENDBLK
0
ENDSEC
0
SECTION
2
ENTITIES
0
LINE
8
M-DUCT-SUPP
10
0.0
20
0.0
30
0.0
11
1000.0
21
0.0
31
0.0
0
ENDSEC
0
EOF
