0
SECTION
2
HEADER
9
$ACADVER
1
AC1015
9
$INSUNITS
70
4
9
$MEASUREMENT
70
1
9
$LTSCALE
40
10.0
9
$EXTMIN
10
0.0
20
0.0
30
0.0
9
$EXTMAX
10
36000.0
20
18000.0
30
0.0
0
ENDSEC
0
SECTION
2
TABLES
0
TABLE
2
LAYER
70
5
0
LAYER
2
0
70
0
62
7
6
CONTINUOUS
0
LAYER
2
01_ONG_GIO_CAP
70
0
62
4
6
CONTINUOUS
370
25
0
LAYER
2
GHI_CHU_CU
70
1
62
3
6
HIDDEN
0
LAYER
2
NUOC_LANH_PPR
70
0
62
-3
6
CONTINUOUS
0
LAYER
2
MANG_CAP_DIEN
70
4
62
1
6
CONTINUOUS
0
ENDTAB
0
ENDSEC
0
SECTION
2
BLOCKS
0
BLOCK
2
A-ARCH-GRID
70
4
1
..\Xref\A-ARCH-GRID-AXIS.dwg
10
0.0
20
0.0
30
0.0
0
ENDBLK
0
BLOCK
2
S-STRUCT-BEAMS
70
12
1
..\Xref\S-STRUCT-BEAMS-COLS.dwg
10
0.0
20
0.0
30
0.0
0
ENDBLK
0
BLOCK
2
VAV_BOX_01
70
0
10
0.0
20
0.0
30
0.0
0
LINE
8
01_ONG_GIO_CAP
10
-400.0
20
-200.0
30
0.0
11
400.0
21
-200.0
31
0.0
0
LINE
8
01_ONG_GIO_CAP
10
400.0
20
-200.0
30
0.0
11
400.0
21
200.0
31
0.0
0
CIRCLE
8
01_ONG_GIO_CAP
10
0.0
20
0.0
30
0.0
40
150.0
0
ENDBLK
0
ENDSEC
0
SECTION
2
ENTITIES
0
LINE
8
01_ONG_GIO_CAP
10
3000.0
20
9000.0
30
0.0
11
33000.0
21
9000.0
31
0.0
0
LWPOLYLINE
8
NUOC_LANH_PPR
90
3
70
1
38
2850.0
10
1000.0
20
1000.0
10
5000.0
20
1000.0
42
0.5
10
5000.0
20
4000.0
0
POLYLINE
8
MANG_CAP_DIEN
66
1
70
0
10
0.0
20
0.0
30
2600.0
0
VERTEX
8
MANG_CAP_DIEN
10
2000.0
20
15000.0
30
2600.0
0
VERTEX
8
MANG_CAP_DIEN
10
12000.0
20
15000.0
30
2600.0
42
-0.25
0
VERTEX
8
MANG_CAP_DIEN
10
12000.0
20
17000.0
30
2600.0
0
SEQEND
8
MANG_CAP_DIEN
0
CIRCLE
8
01_ONG_GIO_CAP
10
20000.0
20
9000.0
30
0.0
40
250.0
0
ARC
8
01_ONG_GIO_CAP
10
25000.0
20
9000.0
30
0.0
40
500.0
50
30.0
51
150.0
0
TEXT
8
GHI_CHU_CU
10
18000.0
20
9500.0
30
0.0
40
300.0
50
45.0
41
0.85
7
VNI-HELVE
1
èng giã cÊp l¹nh AHU-01 800x500 %%c150
0
MTEXT
8
GHI_CHU_CU
10
6000.0
20
12000.0
30
0.0
40
250.0
50
0.0
7
STANDARD
3
Tuyen ong nuoc lanh DN150 
3
doc i=1.5% 
1
BOP=+2850
0
INSERT
8
01_ONG_GIO_CAP
2
VAV_BOX_01
66
1
10
12000.0
20
9000.0
30
0.0
41
2.0
42
2.0
43
1.0
50
90.0
0
ATTRIB
8
01_ONG_GIO_CAP
10
12000.0
20
9200.0
30
0.0
40
200.0
1
800x400
2
KICH_THUOC
0
SEQEND
8
01_ONG_GIO_CAP
0
DIMENSION
8
GHI_CHU_CU
10
18000.0
20
8000.0
30
0.0
11
18000.0
21
7800.0
31
0.0
13
3000.0
23
9000.0
33
0.0
14
33000.0
24
9000.0
34
0.0
42
30000.0
70
0
0
ELLIPSE
8
01_ONG_GIO_CAP
10
28000.0
20
5000.0
30
0.0
11
1000.0
21
0.0
31
0.0
40
0.5
0
SOLID
8
MANG_CAP_DIEN
10
100.0
20
100.0
30
0.0
11
300.0
21
100.0
31
0.0
12
100.0
22
300.0
32
0.0
13
300.0
23
300.0
33
0.0
0
LINE
8
01_ONG_GIO_CAP
10
7000.0
20
2000.0
30
0.0
0
HATCH
8
NUOC_LANH_PPR
10
0.0
20
0.0
30
0.0
2
ANSI31
70
0
71
0
91
1
92
2
72
0
73
1
93
4
10
1000.0
20
5000.0
10
3000.0
20
5000.0
10
3000.0
20
7000.0
10
1000.0
20
7000.0
97
0
75
1
76
1
52
45.0
41
1.0
77
0
78
1
53
45.0
43
0.0
44
0.0
45
-2.5
46
2.5
79
0
47
1.0
98
1
10
2000.0
20
6000.0
0
MULTILEADER
8
GHI_CHU_CU
270
2
300
CONTEXT_DATA{
40
1.0
10
9000.0
20
4000.0
30
0.0
41
250.0
140
180.0
145
2.0
290
1
304
Van chan VCD 400x300
11
0.0
21
0.0
31
1.0
12
9000.0
22
4000.0
32
0.0
13
1.0
23
0.0
33
0.0
42
0.0
43
3000.0
44
250.0
45
1.0
170
1
90
-1056964608
171
1
172
1
302
LEADER{
290
1
291
1
10
9000.0
20
4000.0
30
0.0
11
1.0
21
0.0
31
0.0
90
0
40
500.0
304
LEADER_LINE{
10
8000.0
20
3000.0
30
0.0
10
9000.0
20
4000.0
30
0.0
91
0
305
}
271
0
303
}
301
}
340
0
90
6816768
170
1
0
XLINE
8
MANG_CAP_DIEN
10
15000.0
20
10000.0
30
0.0
11
1.0
21
0.0
31
0.0
0
MLINE
8
MANG_CAP_DIEN
2
STANDARD
40
1.0
70
0
71
0
72
3
11
1000.0
21
100.0
31
0.0
11
4000.0
21
100.0
31
0.0
11
4000.0
21
900.0
31
0.0
0
TEXT
8
GHI_CHU_CU
67
1
39
50.0
48
2.0
210
0.0
220
0.0
230
-1.0
10
0.0
20
0.0
30
0.0
11
500.0
21
600.0
31
0.0
40
180.0
72
1
73
2
1
KHUNG TEN A3
7
STANDARD
0
ENDSEC
0
EOF
