0
SECTION
2
HEADER
9
$ACADVER
1
AC1032
9
$INSUNITS
70
4
9
$MEASUREMENT
70
1
0
ENDSEC
0
SECTION
2
TABLES
0
TABLE
2
LAYER
70
4
0
LAYER
2
01_M_ONG_GIO_CAP_CHINH
70
0
62
4
6
CONTINUOUS
0
LAYER
2
03_P_ONG_NUOC_LANH_CHW
70
0
62
5
6
CONTINUOUS
0
LAYER
2
08_G_GHI_CHU_DIM_TEXT
70
0
62
7
6
CONTINUOUS
0
LAYER
2
ZZZ_KHONG_KHOP_GI
70
0
62
8
6
CONTINUOUS
0
ENDTAB
0
ENDSEC
0
SECTION
2
BLOCKS
0
ENDSEC
0
SECTION
2
ENTITIES
0
LINE
8
03_P_ONG_NUOC_LANH_CHW
10
0.0
20
0.0
30
0.0
11
6000.0
21
0.0
31
0.0
0
LINE
8
03_P_ONG_NUOC_LANH_CHW
10
6000.0
20
0.0
30
0.0
11
6000.0
21
4500.0
31
0.0
0
LINE
8
03_P_ONG_NUOC_LANH_CHW
10
6000.0
20
4500.0
30
2800.0
11
12000.0
21
4500.0
31
2800.0
0
LWPOLYLINE
8
01_M_ONG_GIO_CAP_CHINH
90
4
70
1
10
0.0
20
8000.0
10
4000.0
20
8000.0
10
4000.0
20
11000.0
10
0.0
20
11000.0
0
LWPOLYLINE
8
01_M_ONG_GIO_CAP_CHINH
90
5
70
0
10
8000.0
20
8000.0
10
12000.0
20
8000.0
10
12000.0
20
11000.0
10
8000.0
20
11000.0
10
8000.0
20
8003.0
0
TEXT
8
08_G_GHI_CHU_DIM_TEXT
10
0.0
20
12000.0
30
0.0
40
250.0
1
TÇng 5 - Phßng m¸y l¹nh
0
TEXT
8
ZZZ_KHONG_KHOP_GI
10
0.0
20
12500.0
30
0.0
40
250.0
1
LAYER KHONG THUOC HE NAO
0
ENDSEC
0
SECTION
2
OBJECTS
0
ENDSEC
0
EOF
