0
SECTION
2
HEADER
9
$ACADVER
1
AC1032
9
$INSUNITS
70
6
9
$MEASUREMENT
70
1
0
ENDSEC
0
SECTION
2
TABLES
0
TABLE
2
LAYER
70
4
0
LAYER
2
01_M_ONG_GIO_CAP_CHINH
70
0
62
4
6
CONTINUOUS
0
LAYER
2
03_P_ONG_NUOC_LANH_CHW
70
0
62
5
6
CONTINUOUS
0
LAYER
2
08_G_GHI_CHU_DIM_TEXT
70
0
62
7
6
CONTINUOUS
0
LAYER
2
ZZZ_KHONG_KHOP_GI
70
0
62
8
6
CONTINUOUS
0
ENDTAB
0
ENDSEC
0
SECTION
2
BLOCKS
0
ENDSEC
0
SECTION
2
ENTITIES
0
LINE
8
03_P_ONG_NUOC_LANH_CHW
10
0.0
20
0.0
30
0.0
11
6.0
21
0.0
31
0.0
0
LINE
8
03_P_ONG_NUOC_LANH_CHW
10
6.0
20
0.0
30
0.0
11
6.0
21
4.5
31
0.0
0
LINE
8
03_P_ONG_NUOC_LANH_CHW
10
6.0
20
4.5
30
2.8
11
12.0
21
4.5
31
2.8
0
LWPOLYLINE
8
01_M_ONG_GIO_CAP_CHINH
90
4
70
1
10
0.0
20
8.0
10
4.0
20
8.0
10
4.0
20
11.0
10
0.0
20
11.0
0
LWPOLYLINE
8
01_M_ONG_GIO_CAP_CHINH
90
5
70
0
10
8.0
20
8.0
10
12.0
20
8.0
10
12.0
20
11.0
10
8.0
20
11.0
10
8.0
20
8.003
0
TEXT
8
08_G_GHI_CHU_DIM_TEXT
10
0.0
20
12.0
30
0.0
40
0.25
1
TÇng 5 - Phßng m¸y l¹nh
0
TEXT
8
ZZZ_KHONG_KHOP_GI
10
0.0
20
12.5
30
0.0
40
0.25
1
LAYER KHONG THUOC HE NAO
0
ENDSEC
0
SECTION
2
OBJECTS
0
ENDSEC
0
EOF
